<?xml version="1.0" encoding="UTF-8"?>
<svg version="1.1" xmlns="http://www.w3.org/2000/svg" width="512" height="512">
<path d="M0 0 C7.17180502 5.05686819 12.54578711 11.43552051 15.75390625 19.64453125 C15.75390625 20.30453125 15.75390625 20.96453125 15.75390625 21.64453125 C19.38390625 21.64453125 23.01390625 21.64453125 26.75390625 21.64453125 C26.96015625 20.65453125 27.16640625 19.66453125 27.37890625 18.64453125 C29.69139764 10.67928312 36.15339516 4.36431595 42.75390625 -0.35546875 C52.2448984 -5.51531621 62.15525124 -7.0408485 72.8359375 -4.671875 C83.56585428 -1.05521774 91.91833019 5.88203628 97.12890625 15.95703125 C98.75390625 19.319328 98.75390625 19.319328 98.75390625 21.64453125 C102.38390625 21.64453125 106.01390625 21.64453125 109.75390625 21.64453125 C110.06328125 20.15953125 110.06328125 20.15953125 110.37890625 18.64453125 C112.69139764 10.67928312 119.15339516 4.36431595 125.75390625 -0.35546875 C135.22342184 -5.50364032 145.26751229 -7.14589506 155.90625 -4.6015625 C166.26766013 -0.97720093 174.57919681 4.95089952 179.62890625 14.83203125 C180.76259512 17.21578104 181.68398499 19.2930849 182.19921875 21.8828125 C182.38226563 22.46417969 182.5653125 23.04554687 182.75390625 23.64453125 C185.68725504 24.62231418 187.91970819 24.86503585 190.98828125 25.0390625 C213.40449709 26.45881973 232.52017026 30.15283355 249.75390625 45.64453125 C250.67042969 46.42183594 250.67042969 46.42183594 251.60546875 47.21484375 C267.20790406 61.39239912 273.43244148 82.65627048 274.44140625 103.01953125 C274.56435725 105.89446288 274.66498081 108.76825318 274.75390625 111.64453125 C275.96175781 111.61101562 277.16960937 111.5775 278.4140625 111.54296875 C288.36820959 111.55610954 297.50353778 116.82816501 304.69140625 123.421875 C319.90963885 139.46005548 319.67218657 164.20863084 319.13671875 184.94140625 C318.51693232 200.86874803 315.9256341 217.92850855 304.5703125 230.0546875 C296.95743349 236.71800311 288.02227829 241.64453125 277.75390625 241.64453125 C277.7698584 242.86172852 277.78581055 244.07892578 277.80224609 245.33300781 C277.92009442 258.62373521 277.39960033 271.82059347 276.58203125 285.08447266 C276.37827429 288.40482953 276.18654312 291.72573099 275.99609375 295.046875 C274.25661942 324.58321774 271.77815324 350.73213338 249.01953125 371.83203125 C214.82347169 402.04993582 148.40528598 395.03622759 105.75390625 394.64453125 C105.75390625 397.28453125 105.75390625 399.92453125 105.75390625 402.64453125 C106.74688721 402.6293042 107.73986816 402.61407715 108.76293945 402.59838867 C119.34150228 402.48818442 129.81085145 402.95422 140.35717773 403.76147461 C142.94899629 403.95760561 145.54164512 404.13646754 148.13476562 404.31445312 C166.95401087 405.67745979 183.43721213 408.91896257 198.75390625 420.64453125 C199.70330078 421.27681641 199.70330078 421.27681641 200.671875 421.921875 C202.92554279 423.51175465 204.52428854 424.92079948 205.37109375 427.58984375 C205.79715263 430.40598905 206.01920293 432.88065978 205.07421875 435.6015625 C204.52543559 437.76679105 204.52543559 437.76679105 205.96875 439.93359375 C206.53722656 440.70445312 207.10570312 441.4753125 207.69140625 442.26953125 C210.75390625 446.46913262 210.75390625 446.46913262 210.75390625 448.64453125 C211.66140625 448.58265625 212.56890625 448.52078125 213.50390625 448.45703125 C217.19399569 448.66992103 218.14242888 449.12495534 220.75390625 451.64453125 C224.37270226 460.65524485 224.49948515 471.12701342 224.99951172 480.73144531 C225.13028722 483.1702851 225.29089054 485.60604157 225.453125 488.04296875 C225.54215561 489.60797206 225.62945944 491.17307477 225.71484375 492.73828125 C225.78957413 493.81958313 225.78957413 493.81958313 225.86581421 494.92272949 C226.06771726 499.4011612 225.54313129 502.09962957 222.75390625 505.64453125 C220.20917889 506.91689493 218.43408319 506.77342554 215.58389473 506.77875233 C214.48162643 506.78321017 213.37935812 506.78766801 212.24368775 506.79226094 C210.4122095 506.7919844 210.4122095 506.7919844 208.54373169 506.79170227 C207.25444256 506.79537896 205.96515342 506.79905565 204.63679492 506.80284375 C201.04613721 506.81288035 197.4554962 506.81658319 193.86482644 506.81923306 C189.99698438 506.82313113 186.12915561 506.83270971 182.26132202 506.84144592 C172.91537839 506.86122305 163.56943365 506.87127752 154.22347432 506.88017371 C149.82577939 506.88455403 145.42808567 506.88992145 141.03039169 506.89516258 C126.41794395 506.91217509 111.80549697 506.92667072 97.19304085 506.93391132 C93.39968998 506.93582131 89.60633912 506.93774163 85.81298828 506.93969727 C84.39870725 506.94042288 84.39870725 506.94042288 82.95585488 506.94116315 C67.67177833 506.94946889 52.3877799 506.97481488 37.10373749 507.00727794 C21.4236012 507.04031174 5.74350467 507.05835669 -9.93666661 507.06155556 C-18.74529115 507.06372394 -27.55380172 507.07252038 -36.36239243 507.09801674 C-43.86188915 507.11967345 -51.36124422 507.12779903 -58.86076866 507.11804996 C-62.68914259 507.11349074 -66.51722396 507.11548486 -70.34555817 507.1348114 C-74.49123091 507.15555984 -78.63624865 507.14550478 -82.7819519 507.13227844 C-84.60673799 507.14873231 -84.60673799 507.14873231 -86.46838844 507.16551858 C-87.57587224 507.15693769 -88.68335603 507.1483568 -89.82439995 507.13951588 C-90.78172992 507.14049269 -91.73905988 507.14146949 -92.72539985 507.1424759 C-96.00549859 506.49451637 -97.18821506 505.22742492 -99.24609375 502.64453125 C-100.43349652 498.26676773 -100.28409084 494.12669136 -100.046875 489.62109375 C-100.01223145 488.9621965 -99.97758789 488.30329926 -99.94189453 487.62443542 C-99.82492425 485.50533115 -99.69428104 483.38751619 -99.55859375 481.26953125 C-99.51286224 480.54833099 -99.46713074 479.82713074 -99.42001343 479.08407593 C-97.94832912 456.67733115 -92.49743311 437.99627896 -75.62109375 422.01953125 C-61.83986542 410.61158686 -46.52116206 406.37657293 -28.93359375 404.95703125 C-27.55118811 404.8364605 -26.16886397 404.71495189 -24.78662109 404.5925293 C-20.94129426 404.25684376 -17.09409961 403.948054 -13.24609375 403.64453125 C-11.90587158 403.53431641 -11.90587158 403.53431641 -10.53857422 403.421875 C-0.43562493 402.60301125 9.62679364 402.53172925 19.75390625 402.64453125 C19.75390625 400.00453125 19.75390625 397.36453125 19.75390625 394.64453125 C19.20725311 394.64911346 18.66059998 394.65369568 18.09738159 394.65841675 C3.66538705 394.76197998 -10.70507382 394.4285893 -25.12109375 393.76953125 C-26.13203094 393.72440399 -27.14296814 393.67927673 -28.18453979 393.63278198 C-35.20583116 393.31884676 -42.22611356 392.98642685 -49.24609375 392.64453125 C-50.10088318 392.60350281 -50.95567261 392.56247437 -51.83636475 392.52020264 C-56.33394775 392.30331554 -60.83040396 392.07316909 -65.32598877 391.8180542 C-67.22528107 391.71169664 -69.1250888 391.61466709 -71.02490234 391.51806641 C-95.61506043 390.0216315 -114.76210511 381.21356655 -131.49609375 363.20703125 C-145.99336902 346.28868185 -148.35665384 326.16205418 -149.80859375 304.83203125 C-149.93902154 302.97166654 -150.06963758 301.11131501 -150.20043945 299.25097656 C-151.53934659 280.01755495 -152.42194264 260.92929267 -152.24609375 241.64453125 C-153.46554688 241.51175781 -154.685 241.37898437 -155.94140625 241.2421875 C-166.46960798 239.91052978 -175.25041099 234.59432509 -182.06640625 226.4765625 C-196.3396894 206.21423842 -196.02290375 175.5773841 -192.11425781 151.88500977 C-189.55057394 138.9384062 -184.59686027 126.38994963 -173.37890625 118.671875 C-166.68888266 114.60947913 -160.97380816 111.5359413 -153.04296875 111.609375 C-151.16351563 111.62677734 -151.16351563 111.62677734 -149.24609375 111.64453125 C-149.20742187 109.75734375 -149.20742187 109.75734375 -149.16796875 107.83203125 C-148.52264229 85.71276069 -143.51473568 66.38071137 -128.24609375 49.64453125 C-127.72917969 49.03609375 -127.21226563 48.42765625 -126.6796875 47.80078125 C-112.68627174 32.36944558 -92.37726627 26.92590382 -72.37109375 25.58203125 C-70.14429268 25.4278877 -67.91771382 25.27048936 -65.69140625 25.109375 C-64.71703613 25.04355225 -63.74266602 24.97772949 -62.73876953 24.90991211 C-60.11836325 24.72085299 -60.11836325 24.72085299 -57.24609375 23.64453125 C-56.32051858 21.41592923 -56.32051858 21.41592923 -55.62109375 18.70703125 C-52.64415419 9.96937279 -46.32789514 3.06990966 -38.25390625 -1.39453125 C-25.65567848 -7.42403326 -12.11193052 -7.30928677 0 0 Z " fill="#D8ECF8" transform="translate(193.24609375,5.35546875)"/>
<path d="M0 0 C7.17180502 5.05686819 12.54578711 11.43552051 15.75390625 19.64453125 C15.75390625 20.30453125 15.75390625 20.96453125 15.75390625 21.64453125 C19.38390625 21.64453125 23.01390625 21.64453125 26.75390625 21.64453125 C26.96015625 20.65453125 27.16640625 19.66453125 27.37890625 18.64453125 C29.69139764 10.67928312 36.15339516 4.36431595 42.75390625 -0.35546875 C52.2448984 -5.51531621 62.15525124 -7.0408485 72.8359375 -4.671875 C83.56585428 -1.05521774 91.91833019 5.88203628 97.12890625 15.95703125 C98.75390625 19.319328 98.75390625 19.319328 98.75390625 21.64453125 C102.38390625 21.64453125 106.01390625 21.64453125 109.75390625 21.64453125 C110.06328125 20.15953125 110.06328125 20.15953125 110.37890625 18.64453125 C112.69139764 10.67928312 119.15339516 4.36431595 125.75390625 -0.35546875 C135.22342184 -5.50364032 145.26751229 -7.14589506 155.90625 -4.6015625 C166.26766013 -0.97720093 174.57919681 4.95089952 179.62890625 14.83203125 C180.76259512 17.21578104 181.68398499 19.2930849 182.19921875 21.8828125 C182.38226563 22.46417969 182.5653125 23.04554687 182.75390625 23.64453125 C185.68725504 24.62231418 187.91970819 24.86503585 190.98828125 25.0390625 C213.40449709 26.45881973 232.52017026 30.15283355 249.75390625 45.64453125 C250.67042969 46.42183594 250.67042969 46.42183594 251.60546875 47.21484375 C267.20790406 61.39239912 273.43244148 82.65627048 274.44140625 103.01953125 C274.56435725 105.89446288 274.66498081 108.76825318 274.75390625 111.64453125 C275.96175781 111.61101562 277.16960937 111.5775 278.4140625 111.54296875 C288.36820959 111.55610954 297.50353778 116.82816501 304.69140625 123.421875 C319.90963885 139.46005548 319.67218657 164.20863084 319.13671875 184.94140625 C318.51693232 200.86874803 315.9256341 217.92850855 304.5703125 230.0546875 C296.95743349 236.71800311 288.02227829 241.64453125 277.75390625 241.64453125 C277.7698584 242.86172852 277.78581055 244.07892578 277.80224609 245.33300781 C277.92009442 258.62373521 277.39960033 271.82059347 276.58203125 285.08447266 C276.37827429 288.40482953 276.18654312 291.72573099 275.99609375 295.046875 C274.25661942 324.58321774 271.77815324 350.73213338 249.01953125 371.83203125 C214.82347169 402.04993582 148.40528598 395.03622759 105.75390625 394.64453125 C105.75390625 397.28453125 105.75390625 399.92453125 105.75390625 402.64453125 C106.74688721 402.6293042 107.73986816 402.61407715 108.76293945 402.59838867 C119.34150228 402.48818442 129.81085145 402.95422 140.35717773 403.76147461 C142.94899629 403.95760561 145.54164512 404.13646754 148.13476562 404.31445312 C166.95401087 405.67745979 183.43721213 408.91896257 198.75390625 420.64453125 C199.70330078 421.27681641 199.70330078 421.27681641 200.671875 421.921875 C202.92554279 423.51175465 204.52428854 424.92079948 205.37109375 427.58984375 C205.79715263 430.40598905 206.01920293 432.88065978 205.07421875 435.6015625 C204.52543559 437.76679105 204.52543559 437.76679105 205.96875 439.93359375 C206.53722656 440.70445312 207.10570312 441.4753125 207.69140625 442.26953125 C210.75390625 446.46913262 210.75390625 446.46913262 210.75390625 448.64453125 C211.66140625 448.58265625 212.56890625 448.52078125 213.50390625 448.45703125 C217.19399569 448.66992103 218.14242888 449.12495534 220.75390625 451.64453125 C224.37270226 460.65524485 224.49948515 471.12701342 224.99951172 480.73144531 C225.13028722 483.1702851 225.29089054 485.60604157 225.453125 488.04296875 C225.54215561 489.60797206 225.62945944 491.17307477 225.71484375 492.73828125 C225.78957413 493.81958313 225.78957413 493.81958313 225.86581421 494.92272949 C226.06771726 499.4011612 225.54313129 502.09962957 222.75390625 505.64453125 C220.20917889 506.91689493 218.43408319 506.77342554 215.58389473 506.77875233 C214.48162643 506.78321017 213.37935812 506.78766801 212.24368775 506.79226094 C210.4122095 506.7919844 210.4122095 506.7919844 208.54373169 506.79170227 C207.25444256 506.79537896 205.96515342 506.79905565 204.63679492 506.80284375 C201.04613721 506.81288035 197.4554962 506.81658319 193.86482644 506.81923306 C189.99698438 506.82313113 186.12915561 506.83270971 182.26132202 506.84144592 C172.91537839 506.86122305 163.56943365 506.87127752 154.22347432 506.88017371 C149.82577939 506.88455403 145.42808567 506.88992145 141.03039169 506.89516258 C126.41794395 506.91217509 111.80549697 506.92667072 97.19304085 506.93391132 C93.39968998 506.93582131 89.60633912 506.93774163 85.81298828 506.93969727 C84.39870725 506.94042288 84.39870725 506.94042288 82.95585488 506.94116315 C67.67177833 506.94946889 52.3877799 506.97481488 37.10373749 507.00727794 C21.4236012 507.04031174 5.74350467 507.05835669 -9.93666661 507.06155556 C-18.74529115 507.06372394 -27.55380172 507.07252038 -36.36239243 507.09801674 C-43.86188915 507.11967345 -51.36124422 507.12779903 -58.86076866 507.11804996 C-62.68914259 507.11349074 -66.51722396 507.11548486 -70.34555817 507.1348114 C-74.49123091 507.15555984 -78.63624865 507.14550478 -82.7819519 507.13227844 C-84.60673799 507.14873231 -84.60673799 507.14873231 -86.46838844 507.16551858 C-87.57587224 507.15693769 -88.68335603 507.1483568 -89.82439995 507.13951588 C-90.78172992 507.14049269 -91.73905988 507.14146949 -92.72539985 507.1424759 C-96.00549859 506.49451637 -97.18821506 505.22742492 -99.24609375 502.64453125 C-100.43349652 498.26676773 -100.28409084 494.12669136 -100.046875 489.62109375 C-100.01223145 488.9621965 -99.97758789 488.30329926 -99.94189453 487.62443542 C-99.82492425 485.50533115 -99.69428104 483.38751619 -99.55859375 481.26953125 C-99.51286224 480.54833099 -99.46713074 479.82713074 -99.42001343 479.08407593 C-97.94832912 456.67733115 -92.49743311 437.99627896 -75.62109375 422.01953125 C-61.83986542 410.61158686 -46.52116206 406.37657293 -28.93359375 404.95703125 C-27.55118811 404.8364605 -26.16886397 404.71495189 -24.78662109 404.5925293 C-20.94129426 404.25684376 -17.09409961 403.948054 -13.24609375 403.64453125 C-11.90587158 403.53431641 -11.90587158 403.53431641 -10.53857422 403.421875 C-0.43562493 402.60301125 9.62679364 402.53172925 19.75390625 402.64453125 C19.75390625 400.00453125 19.75390625 397.36453125 19.75390625 394.64453125 C19.20725311 394.64911346 18.66059998 394.65369568 18.09738159 394.65841675 C3.66538705 394.76197998 -10.70507382 394.4285893 -25.12109375 393.76953125 C-26.13203094 393.72440399 -27.14296814 393.67927673 -28.18453979 393.63278198 C-35.20583116 393.31884676 -42.22611356 392.98642685 -49.24609375 392.64453125 C-50.10088318 392.60350281 -50.95567261 392.56247437 -51.83636475 392.52020264 C-56.33394775 392.30331554 -60.83040396 392.07316909 -65.32598877 391.8180542 C-67.22528107 391.71169664 -69.1250888 391.61466709 -71.02490234 391.51806641 C-95.61506043 390.0216315 -114.76210511 381.21356655 -131.49609375 363.20703125 C-145.99336902 346.28868185 -148.35665384 326.16205418 -149.80859375 304.83203125 C-149.93902154 302.97166654 -150.06963758 301.11131501 -150.20043945 299.25097656 C-151.53934659 280.01755495 -152.42194264 260.92929267 -152.24609375 241.64453125 C-153.46554688 241.51175781 -154.685 241.37898437 -155.94140625 241.2421875 C-166.46960798 239.91052978 -175.25041099 234.59432509 -182.06640625 226.4765625 C-196.3396894 206.21423842 -196.02290375 175.5773841 -192.11425781 151.88500977 C-189.55057394 138.9384062 -184.59686027 126.38994963 -173.37890625 118.671875 C-166.68888266 114.60947913 -160.97380816 111.5359413 -153.04296875 111.609375 C-151.16351563 111.62677734 -151.16351563 111.62677734 -149.24609375 111.64453125 C-149.20742187 109.75734375 -149.20742187 109.75734375 -149.16796875 107.83203125 C-148.52264229 85.71276069 -143.51473568 66.38071137 -128.24609375 49.64453125 C-127.72917969 49.03609375 -127.21226563 48.42765625 -126.6796875 47.80078125 C-112.68627174 32.36944558 -92.37726627 26.92590382 -72.37109375 25.58203125 C-70.14429268 25.4278877 -67.91771382 25.27048936 -65.69140625 25.109375 C-64.71703613 25.04355225 -63.74266602 24.97772949 -62.73876953 24.90991211 C-60.11836325 24.72085299 -60.11836325 24.72085299 -57.24609375 23.64453125 C-56.32051858 21.41592923 -56.32051858 21.41592923 -55.62109375 18.70703125 C-52.64415419 9.96937279 -46.32789514 3.06990966 -38.25390625 -1.39453125 C-25.65567848 -7.42403326 -12.11193052 -7.30928677 0 0 Z M-49.109375 39.546875 C-49.84261671 39.59023397 -50.57585842 39.63359293 -51.33131957 39.67826581 C-56.1742557 39.96573708 -61.01564122 40.27187526 -65.85668945 40.58959961 C-67.05596132 40.66540442 -68.25523319 40.74120922 -69.49084663 40.81931114 C-89.12567795 42.18537767 -104.39787798 47.30592413 -118.49609375 61.70703125 C-121.7971361 65.64898579 -124.21596614 69.90485538 -126.55859375 74.45703125 C-126.8844043 75.08424072 -127.21021484 75.7114502 -127.54589844 76.35766602 C-132.22361426 85.98446359 -133.69574441 96.18719095 -134.30859375 106.76953125 C-134.38384277 107.9810083 -134.4590918 109.19248535 -134.53662109 110.44067383 C-134.69808399 113.11246861 -134.85415737 115.78408724 -135.00341797 118.45654297 C-135.15942313 121.21740786 -135.33289926 123.97620351 -135.52392578 126.73486328 C-137.28497911 152.24810478 -137.43460918 177.75624116 -137.43367767 203.31857681 C-137.43362216 205.10529714 -137.43404683 206.89201755 -137.43497467 208.67873764 C-137.44995515 237.54372786 -136.8594121 266.3061157 -135.05371094 295.12329102 C-134.86778124 298.13570013 -134.6976675 301.1487822 -134.52734375 304.16210938 C-133.18812107 326.46450815 -129.12731515 344.88498961 -112.29296875 360.87109375 C-101.84692424 369.9216743 -89.97439561 374.04173848 -76.32348633 375.20849609 C-73.75702742 375.42889355 -71.19069462 375.64948664 -68.62503052 375.87898254 C-51.44832953 377.40978251 -34.29398869 378.26165974 -17.05859375 378.76953125 C-16.37363075 378.79021164 -15.68866776 378.81089203 -14.9829483 378.8321991 C46.57497443 380.68551198 108.22751733 380.33254224 169.75390625 377.64453125 C171.19286255 377.58298859 171.19286255 377.58298859 172.66088867 377.52020264 C178.21462984 377.28062125 183.76582389 377.01086385 189.31640625 376.70703125 C190.52143799 376.64467285 191.72646973 376.58231445 192.96801758 376.51806641 C214.7060976 375.13440302 231.04965805 368.88789782 245.65625 352.51171875 C255.36370245 340.30947572 258.50411174 326.07131137 259.47265625 310.8671875 C259.53545776 309.90598495 259.59825928 308.94478241 259.66296387 307.95445251 C259.79560455 305.90780632 259.92662752 303.86105473 260.05615234 301.81420898 C260.24776902 298.80346149 260.4477109 295.79335493 260.6484375 292.78320312 C262.39349488 265.96441222 262.9603421 239.13508805 262.94278717 212.26618576 C262.94137721 210.09991116 262.94149183 207.9336395 262.94158936 205.7673645 C262.93356337 181.71898335 262.35971559 157.73653377 261.02734375 133.72216797 C260.79659282 129.53530044 260.60169374 125.34778901 260.42166138 121.15846252 C260.28587179 118.04122736 260.13593493 114.92478474 259.98236084 111.80838013 C259.88430018 109.75735039 259.79943147 107.70570236 259.71533203 105.65405273 C258.66911307 86.33663571 252.46506586 68.85250697 237.75390625 55.64453125 C217.33322656 39.66921095 193.57773326 40.22231525 168.765625 39.046875 C167.75318368 38.9982551 167.75318368 38.9982551 166.72028899 38.94865298 C133.97663388 37.38121386 101.25629824 37.14831144 68.48064983 37.20228231 C63.11159776 37.20950397 57.74279201 37.19859902 52.3737793 37.17797852 C18.48313687 37.05098138 -15.27193405 37.52346389 -49.109375 39.546875 Z " fill="#010101" transform="translate(193.24609375,5.35546875)"/>
<path d="M0 0 C5.45749067 0.01126856 10.91481726 0.0072598 16.37230182 -0.00540614 C49.35992639 -0.07993805 82.28028389 0.19632349 115.2346065 1.78414464 C116.5500331 1.84666039 117.8654597 1.90917615 119.22074771 1.97358632 C170.79766024 4.48875842 170.79766024 4.48875842 190.414294 24.44820714 C193.71533636 28.39016168 196.13416639 32.64603127 198.476794 37.19820714 C198.80260455 37.82541661 199.1284151 38.45262609 199.46409869 39.09884191 C204.08270268 48.60398659 205.59145752 58.70869674 206.0783565 69.16695714 C206.13832812 70.25996129 206.19829974 71.35296544 206.26008868 72.47909093 C206.44740373 75.94748619 206.61838125 79.41646948 206.789294 82.88570714 C206.91067487 85.14748059 207.03306463 87.40920013 207.1564815 89.67086339 C207.5262573 96.57434851 207.85445187 103.4792906 208.164294 110.38570714 C208.21515155 111.50826909 208.26600909 112.63083104 208.31840777 113.78741002 C209.10531865 131.66780972 209.32338891 149.52667131 209.2946651 167.42061925 C209.28898483 170.97606381 209.29236123 174.53143322 209.29809642 178.0868752 C209.33473842 204.78626761 208.66336524 231.4391972 206.97191119 258.09078526 C206.78517652 261.07654292 206.61538889 264.0630087 206.445544 267.04976964 C205.63502807 280.46223443 204.53849577 293.28995225 198.164294 305.38570714 C197.75566119 306.18492589 197.34702838 306.98414464 196.92601275 307.80758214 C189.73793946 320.84735454 178.02145243 330.15347721 164.164294 335.38570714 C154.80604071 337.82912385 145.37157359 338.94910576 135.726794 339.44820714 C135.05747851 339.48484471 134.38816302 339.52148229 133.69856524 339.55923009 C127.85556599 339.87681411 122.01052191 340.13567006 116.164294 340.38570714 C115.13666949 340.43060277 114.10904498 340.4754984 113.05028033 340.5217545 C51.86949563 343.16757629 -9.44042677 343.35869121 -70.648206 341.51070714 C-71.31721684 341.49099355 -71.98622769 341.47127995 -72.6755116 341.45096898 C-90.11533039 340.93534287 -107.4580115 339.93993903 -124.835706 338.38570714 C-126.1285249 338.27480496 -126.1285249 338.27480496 -127.44746137 338.16166234 C-128.26096051 338.09186666 -129.07445966 338.02207097 -129.91261029 337.95016026 C-130.62289884 337.88953404 -131.33318738 337.82890782 -132.06499982 337.76644444 C-148.92085969 336.15454215 -162.93474488 328.34214609 -173.835706 315.38570714 C-183.46985001 302.25721171 -186.7056302 289.04505344 -187.65211225 273.01461339 C-187.71349881 272.05337056 -187.77488538 271.09212773 -187.83813214 270.10175633 C-187.96631381 268.07249493 -188.09135774 266.04303308 -188.21339154 264.01339269 C-188.39424437 261.01391145 -188.5857525 258.01526746 -188.77906537 255.01656651 C-190.5730539 226.60355703 -191.07250491 198.22105138 -191.085706 169.76070714 C-191.08703156 168.44693027 -191.08703156 168.44693027 -191.08838391 167.10661244 C-191.11004444 142.81205188 -190.7758542 118.5849096 -189.460706 94.32320714 C-189.39758222 93.14530614 -189.33445844 91.96740514 -189.26942182 90.75381017 C-186.3029302 37.03484682 -186.3029302 37.03484682 -165.835706 18.38570714 C-154.90522185 9.79909278 -144.23628299 5.48709811 -130.42213178 4.38814855 C-129.40818404 4.3043727 -128.39423631 4.22059686 -127.34956288 4.13428235 C-124.17886791 3.87646975 -121.00754962 3.62895531 -117.835706 3.38570714 C-116.88282445 3.31227841 -115.9299429 3.23884969 -114.94818616 3.16319585 C-76.6299779 0.26426149 -38.40054825 -0.08843682 0 0 Z M-86.835706 37.38570714 C-87.60152997 37.43144872 -88.36735394 37.47719029 -89.15638471 37.52431798 C-97.39234768 38.02263547 -105.62577485 38.55456476 -113.835706 39.38570714 C-114.9803935 39.48625401 -116.125081 39.58680089 -117.304456 39.69039464 C-120.5509198 40.58217019 -121.31380388 41.58005065 -123.023206 44.44820714 C-129.33573965 56.50322417 -129.50841083 71.52673547 -130.460706 84.88570714 C-130.58665557 86.5854222 -130.71271497 88.28512914 -130.83887982 89.98482823 C-131.18978728 94.78392024 -131.51753013 99.58434591 -131.835706 104.38570714 C-131.94809613 106.05681554 -131.94809613 106.05681554 -132.06275678 107.7616837 C-132.92633955 121.35332511 -132.95269971 134.97355387 -133.00993085 148.58803868 C-133.01873918 150.61022851 -133.03024886 152.63240848 -133.04453778 154.654567 C-133.06235725 157.50774426 -133.06630166 160.36060583 -133.06617475 163.21383214 C-133.07330487 164.0794074 -133.080435 164.94498265 -133.08778119 165.83678746 C-133.08475995 166.64087041 -133.08173871 167.44495336 -133.07862592 168.27340245 C-133.08005094 168.97378636 -133.08147595 169.67417027 -133.08294415 170.39577794 C-132.79353603 172.72511769 -131.98352273 174.35424171 -130.835706 176.38570714 C-130.51078168 175.89965001 -130.18585736 175.41359288 -129.85108685 174.91280675 C-126.72385037 172.54322902 -123.36172569 172.9379401 -119.58961225 172.95211339 C-118.78209012 172.94687154 -117.974568 172.94162969 -117.1425755 172.93622899 C-115.43539827 172.92980828 -113.7281768 172.93114646 -112.02100873 172.93966222 C-109.41091174 172.94816575 -106.80300819 172.91942501 -104.19312787 172.88766026 C-102.53362332 172.88604796 -100.87411489 172.88662635 -99.21461225 172.88961339 C-98.04570195 172.87276242 -98.04570195 172.87276242 -96.85317731 172.85557103 C-93.26011044 172.90169471 -91.23026571 173.08782279 -88.32276654 175.28292394 C-86.835706 177.38570714 -86.835706 177.38570714 -86.663831 179.52633214 C-87.054456 181.47945714 -87.445081 183.43258214 -87.835706 185.38570714 C-91.73194774 186.64471613 -95.65644085 186.56522777 -99.70679975 186.58883214 C-100.84581487 186.59738225 -100.84581487 186.59738225 -102.00784039 186.60610509 C-103.61068581 186.61553123 -105.2135504 186.62207957 -106.81641889 186.62594151 C-109.26134338 186.63565999 -111.70543124 186.66670989 -114.15015912 186.69820714 C-115.71070103 186.70473673 -117.27124892 186.70998737 -118.83179975 186.71383214 C-119.92264119 186.73235234 -119.92264119 186.73235234 -121.03551984 186.75124669 C-125.49062517 186.73179735 -128.24374116 186.04317349 -131.835706 183.38570714 C-132.05021821 193.12867859 -131.48203415 202.70407129 -130.663831 212.40548253 C-130.46133833 214.81568073 -130.26903843 217.22653847 -130.0778935 219.63766026 C-129.32276522 228.94447627 -128.37228995 238.17001061 -126.835706 247.38570714 C-126.71566205 248.16550939 -126.5956181 248.94531163 -126.47193646 249.74874425 C-125.57073256 254.50303091 -123.89533896 258.60973956 -119.835706 261.38570714 C-113.60553612 263.35167743 -107.00790706 263.18631206 -100.53321576 263.22945714 C-94.87430655 263.29150017 -89.24179571 263.48865103 -83.5935185 263.83883214 C-55.91389361 265.5324397 -28.28325453 265.69569484 -0.55762982 265.64644933 C5.90652083 265.63509804 12.37050586 265.64180323 18.83465075 265.65334058 C50.66240721 265.70130842 82.3816327 265.10247683 114.164294 263.38570714 C115.31701045 263.32385669 115.31701045 263.32385669 116.4930141 263.26075673 C138.14934781 262.78762017 138.14934781 262.78762017 156.44163775 252.35836339 C166.14674285 241.24480767 165.16827113 222.29412542 166.164294 208.38570714 C166.25477008 207.17535802 166.34524615 205.9650089 166.43846393 204.71798253 C167.48797591 189.0948454 167.35161626 173.42692887 167.34959674 157.77657628 C167.34951615 154.50112866 167.35636303 151.22582292 167.37010455 147.95040441 C171.09863767 95.0910174 171.09863767 95.0910174 156.164294 48.38570714 C147.72687758 39.98458068 137.06591645 38.95404117 125.66820025 38.47164464 C124.48121036 38.41167302 123.29422046 38.3517014 122.07126117 38.28991246 C118.29023383 38.10188139 114.5086497 37.93116789 110.726794 37.76070714 C108.2547344 37.63941487 105.78272829 37.51702728 103.31077838 37.39351964 C97.11178231 37.0881606 90.91196437 36.80858355 84.71123004 36.5410111 C81.41570509 36.39671527 78.1208672 36.24140716 74.8259151 36.08468175 C53.44793564 35.12284449 32.05931316 35.1882525 10.664294 35.19820714 C8.65394855 35.198151 6.64360309 35.19808993 4.63325763 35.19802403 C-25.89375098 35.20546816 -56.35469943 35.5508747 -86.835706 37.38570714 Z " fill="#8ED6F7" transform="translate(246.8357059955597,42.61429286003113)"/>
<path d="M0 0 C0.4125 0.9178125 0.825 1.835625 1.25 2.78125 C6.93249357 15.01854244 14.24098256 23.5829976 27 28.8125 C37.94155325 32.13099535 50.47617965 30.75621894 60.58203125 25.7109375 C69.26772414 20.84069891 74.37016019 15.73535306 78.70703125 6.75 C79.02595337 6.1003125 79.34487549 5.450625 79.67346191 4.78125 C80.45380022 3.18985717 81.2275693 1.59524601 82 0 C88.04310774 0.21549366 94.08539664 0.44621188 100.12744141 0.68969727 C102.17318806 0.77015157 104.21908914 0.84679085 106.26513672 0.91918945 C154.30518166 2.63068983 154.30518166 2.63068983 169.4375 17.375 C172.43566089 19.27627276 173.59364801 19.10436897 177.0625 18.9375 C181.71498967 18.7442215 181.71498967 18.7442215 184.4375 21.1875 C184.953125 22.115625 185.46875 23.04375 186 24 C186.86625 25.299375 186.86625 25.299375 187.75 26.625 C189 29 189 29 189 32 C188.319375 32.515625 187.63875 33.03125 186.9375 33.5625 C184.70788012 36.36750565 184.77003297 36.73244623 185.125 40.125 C185.40704015 42.0847429 185.70053163 44.04284452 186 46 C186.37979237 48.99716519 186.72095652 51.9982745 187.0625 55 C187.15354004 55.73492676 187.24458008 56.46985352 187.33837891 57.22705078 C188.00773324 62.9335801 188 68.1544839 188 74 C90.98 74 -6.04 74 -106 74 C-106 53.29548442 -104.15621559 34.95174444 -90.04296875 18.75390625 C-85.59471718 14.39070729 -80.55969337 11.4558746 -75.0625 8.625 C-74.41861328 8.29081055 -73.77472656 7.95662109 -73.11132812 7.61230469 C-63.84995188 3.11140562 -53.95021526 2.58895901 -43.8125 1.9375 C-41.98984619 1.8139917 -41.98984619 1.8139917 -40.13037109 1.68798828 C-12.60783945 -0.12483009 -12.60783945 -0.12483009 0 0 Z " fill="#8FD7F8" transform="translate(215,423)"/>
<path d="M0 0 C1.09155521 0.04730696 1.09155521 0.04730696 2.20516205 0.09556961 C15.82334434 0.69234061 29.43654187 1.37533002 43.015625 2.58984375 C43.84223633 2.66057098 44.66884766 2.73129822 45.52050781 2.8041687 C57.0824884 3.936391 66.95867059 8.8943914 74.74609375 17.5703125 C84.82868552 30.39355889 85.45638342 44.92456528 87 60.625 C87.08679016 61.48976456 87.17358032 62.35452911 87.26300049 63.24549866 C89.18600545 83.00753169 89.35958082 102.6921716 89.31765366 122.52795792 C89.31244034 125.1550648 89.31050619 127.78215984 89.30899048 130.40927124 C89.28887445 150.44182328 89.20000463 170.45102208 87.6875 190.4375 C87.62873688 191.22753418 87.56997375 192.01756836 87.50942993 192.83154297 C86.87104318 201.03684152 85.85222341 209.16159329 84.55859375 217.2890625 C84.44416428 218.02667313 84.3297348 218.76428375 84.21183777 219.52424622 C82.3307329 230.6809536 76.99513215 239.70039369 68 246.625 C57.53387108 252.961914 48.19801814 254.92192733 36.1640625 255.6796875 C34.92161774 255.76233856 33.67917297 255.84498962 32.39907837 255.93014526 C20.06451824 256.72786001 7.72788806 257.32863965 -4.625 257.75 C-5.83569153 257.79169312 -7.04638306 257.83338623 -8.29376221 257.87634277 C-61.59305409 259.63268989 -115.20852815 259.81567696 -168.5 257.75 C-169.51229675 257.71088501 -170.52459351 257.67177002 -171.56756592 257.63146973 C-178.04996208 257.36868996 -184.52467145 257.02436309 -191 256.625 C-192.08958008 256.55986206 -193.17916016 256.49472412 -194.30175781 256.4276123 C-197.77521778 256.21375758 -201.24691676 255.98090603 -204.71875 255.7421875 C-205.78009155 255.67637482 -206.84143311 255.61056213 -207.93493652 255.54275513 C-219.73703319 254.67758308 -228.79060135 252.17859923 -238 244.625 C-238.6496875 244.10035156 -239.299375 243.57570313 -239.96875 243.03515625 C-248.08555215 235.75495432 -252.12525032 225.06037231 -253.375 214.4375 C-252.87665503 210.69991272 -251.79998001 209.13024528 -249 206.625 C-245.31440649 205.91924805 -243.56716652 206.32852659 -240.25 208.0625 C-237.55048539 211.1369472 -237.22065382 213.2589804 -236.50390625 217.19140625 C-234.81610258 225.34258211 -230.96825373 231.0428093 -224 235.625 C-217.71478149 238.94757543 -211.78096126 239.356616 -204.75 239.79296875 C-203.4860289 239.87778 -202.2220578 239.96259125 -200.91978455 240.04997253 C-196.61463331 240.33085263 -192.30761653 240.5729588 -188 240.8125 C-187.24951008 240.85554512 -186.49902016 240.89859024 -185.72578812 240.94293976 C-153.11418702 242.808187 -120.496565 243.0069124 -87.83892822 243.00061417 C-83.99442158 243.00000896 -80.14992547 243.00252505 -76.30541992 243.00521851 C-3.5118435 248.85418531 -3.5118435 248.85418531 62.5 230.375 C71.99394136 219.29873508 71.01490185 200.38086589 72 186.625 C72.09047607 185.41465088 72.18095215 184.20430176 72.27416992 182.95727539 C73.3236819 167.33413826 73.18732226 151.66622173 73.18530273 136.01586914 C73.18522215 132.74042152 73.19206903 129.46511578 73.20581055 126.18969727 C76.93102367 73.33981343 76.93102367 73.33981343 62 26.625 C54.16869972 18.83208845 42.97138898 18.15396286 32.50390625 17.7109375 C31.31691635 17.65096588 30.12992645 17.59099426 28.90696716 17.52920532 C25.12593983 17.34117425 21.34435569 17.17046075 17.5625 17 C15.0904404 16.87870773 12.61843428 16.75632014 10.14648438 16.6328125 C3.94748831 16.32745346 -2.25232964 16.04787641 -8.45306396 15.78030396 C-11.74858891 15.63600813 -15.0434268 15.48070002 -18.33837891 15.32397461 C-39.71635863 14.36213733 -61.10498083 14.42755078 -82.5 14.4375 C-84.51303101 14.43744385 -86.52606201 14.43738278 -88.53909302 14.43731689 C-117.33981643 14.44432901 -146.06686868 14.7756741 -174.83105469 16.3515625 C-179.18863549 16.58858658 -183.5468523 16.78091044 -187.90727234 16.95724487 C-191.20055083 17.09215935 -194.49300675 17.24229991 -197.78543091 17.39654541 C-199.26361823 17.46370423 -200.74203932 17.52596354 -202.22067261 17.5824585 C-213.16643721 18.01298726 -223.10834661 19.36629297 -231 27.625 C-246.02810991 49.77675086 -241.19240037 90.73010549 -241.08984375 116.62109375 C-241.08383809 118.17281312 -241.08383809 118.17281312 -241.07771111 119.75588036 C-241.04036236 128.29152622 -240.98020449 136.82698769 -240.9105835 145.36242676 C-240.85799808 151.81060938 -240.81687415 158.25863068 -240.79324532 164.70698738 C-240.77760657 167.69586284 -240.74471117 170.68423563 -240.71141052 173.67295837 C-240.70371914 175.48305899 -240.69691873 177.29316368 -240.69116211 179.10327148 C-240.67723419 179.92739029 -240.66330627 180.75150909 -240.6489563 181.6006012 C-240.65809218 187.18676132 -240.65809218 187.18676132 -242.30686283 189.30006504 C-245.08656461 191.47527218 -247.53985097 191.56429563 -251 191.625 C-253.41281883 189.78363826 -254.65150913 188.32198174 -256 185.625 C-256.23654577 182.93289547 -256.41785893 180.26252539 -256.55200195 177.56494141 C-256.59404157 176.75822809 -256.63608118 175.95151478 -256.67939472 175.12035561 C-257.07815237 166.94157151 -257.16388991 158.77298675 -257.16796875 150.5859375 C-257.17120329 149.00680515 -257.17456874 147.42767307 -257.17805481 145.84854126 C-257.1839808 142.55950226 -257.18590186 139.27048925 -257.18530273 135.98144531 C-257.18522208 132.68549031 -257.19207855 129.38967612 -257.20581055 126.09375 C-257.58658616 33.19110896 -257.58658616 33.19110896 -241 15.625 C-231.28767185 6.78608265 -221.11368115 2.59839537 -207.99536133 2.03076172 C-206.849623 1.97183196 -206.849623 1.97183196 -205.68073845 1.91171169 C-203.14817228 1.78417817 -200.61522977 1.66892343 -198.08203125 1.5546875 C-196.26453902 1.46781152 -194.44705986 1.38066169 -192.6295929 1.29325867 C-186.69124438 1.01263998 -180.75200749 0.75472698 -174.8125 0.5 C-173.28379398 0.43356859 -173.28379398 0.43356859 -171.72420502 0.36579514 C-114.46284909 -2.11504805 -57.26704754 -2.48665293 0 0 Z " fill="#020304" transform="translate(340,64.375)"/>
<path d="M0 0 C-0.81791016 0.73089844 -0.81791016 0.73089844 -1.65234375 1.4765625 C-20.80908327 19.48717231 -24.71002455 41.71165476 -26.37768555 66.95849609 C-26.55940919 69.70331532 -26.75059865 72.44734254 -26.94335938 75.19140625 C-27.33043269 80.79231537 -27.6721872 86.39534333 -28 92 C-28.05159271 92.84240234 -28.10318542 93.68480469 -28.15634155 94.55273438 C-29.3884587 115.36025462 -29.18732162 136.22098616 -29.18530273 157.05615234 C-29.18522199 161.32344855 -29.19209416 165.59063621 -29.20581055 169.85791016 C-29.29150818 196.94015752 -28.8160406 223.89042577 -27.12952423 250.92339516 C-26.99875586 253.01994667 -26.87091769 255.11666156 -26.74359131 257.21342468 C-25.22828012 281.95983037 -23.11573629 304.72300985 -6 324 C-5.34 324.33 -4.68 324.66 -4 325 C-4 325.66 -4 326.32 -4 327 C-3.01 327.33 -2.02 327.66 -1 328 C-1 328.66 -1 329.32 -1 330 C-16.24059771 327.06911583 -28.97939054 317.70788749 -37.765625 305.01953125 C-45.11262488 292.99928145 -47.84145221 281.03296156 -48.71875 267.1171875 C-48.78155151 266.14886993 -48.84435303 265.18055237 -48.90905762 264.18289185 C-49.04166308 262.12365426 -49.17268772 260.06431435 -49.30224609 258.00488281 C-49.49455161 254.96123251 -49.69414231 251.91812729 -49.89453125 248.875 C-51.73574258 220.38007644 -52.23675983 191.91958962 -52.25 163.375 C-52.25132557 162.06122313 -52.25132557 162.06122313 -52.25267792 160.7209053 C-52.27433844 136.42634474 -51.9401482 112.19920246 -50.625 87.9375 C-50.56187622 86.759599 -50.49875244 85.581698 -50.43371582 84.36810303 C-47.4672242 30.64913968 -47.4672242 30.64913968 -27 12 C-7.16437565 -3.58218782 -7.16437565 -3.58218782 0 0 Z " fill="#74CCF7" transform="translate(108,49)"/>
<path d="M0 0 C9.67897086 7.05464348 16.92597621 16.01865598 19 28 C20.0602476 38.51084964 18.37466004 47.53156316 12.25 56.25 C5.57137565 64.37399828 -2.36817855 70.91637682 -13.15478516 72.27050781 C-21.98367953 72.94086713 -30.35684522 72.9526272 -38 68 C-39.03125 67.401875 -40.0625 66.80375 -41.125 66.1875 C-49.2266786 60.02317933 -55.26967803 52.67409903 -57.875 42.625 C-57.91625 41.42875 -57.9575 40.2325 -58 39 C-58.06058594 38.03320312 -58.12117188 37.06640625 -58.18359375 36.0703125 C-58.62916108 24.59357837 -55.82762651 16.06529748 -48.34375 7.296875 C-36.05619239 -4.74493146 -15.37757394 -8.96623433 0 0 Z " fill="#030304" transform="translate(363,101)"/>
<path d="M0 0 C8.59841061 4.83916909 14.12187906 10.54081893 18.45703125 19.3828125 C18.79605469 19.99382812 19.13507813 20.60484375 19.484375 21.234375 C23.09367673 28.78563299 22.57335678 38.75572408 20.6484375 46.734375 C16.84180631 56.92929728 9.40223986 65.73469913 -0.54296875 70.3828125 C-9.79045785 74.52191527 -20.87142324 75.67670663 -30.54296875 72.09375 C-42.78603428 66.71177461 -49.51606383 58.55870676 -54.54296875 46.3828125 C-57.33233655 37.82875125 -56.14664734 27.49786316 -52.54296875 19.3828125 C-42.19910471 0.35637168 -20.62411007 -9.06066894 0 0 Z " fill="#030304" transform="translate(185.54296875,99.6171875)"/>
<path d="M0 0 C0 0.33 0 0.66 0 1 C-1.98 1 -3.96 1 -6 1 C-6.2475 1.66 -6.495 2.32 -6.75 3 C-8 6 -8 6 -8.93994141 7.6628418 C-12.07741248 13.25871285 -12.96383845 18.48379042 -13.625 24.8125 C-13.74343262 25.85148437 -13.86186523 26.89046875 -13.98388672 27.9609375 C-15.33655233 40.27992199 -16.24663237 52.63158692 -17 65 C-17.05929688 65.93054199 -17.11859375 66.86108398 -17.1796875 67.81982422 C-18.0881726 82.63948742 -18.10208633 97.47054099 -18.125 112.3125 C-18.12901825 113.81174515 -18.12901825 113.81174515 -18.13311768 115.34127808 C-18.1389414 118.20281659 -18.1372581 121.06424219 -18.1328125 123.92578125 C-18.13478638 124.79657318 -18.13676025 125.66736511 -18.13879395 126.56454468 C-18.13569214 127.36864777 -18.13259033 128.17275085 -18.12939453 129.0012207 C-18.12859894 129.70382523 -18.12780334 130.40642975 -18.12698364 131.13032532 C-18.06305413 133.22953233 -18.06305413 133.22953233 -17 136 C-16.67435059 135.51466797 -16.34870117 135.02933594 -16.01318359 134.52929688 C-12.89763468 132.16259806 -9.55189631 132.53222396 -5.7890625 132.53125 C-4.98391205 132.52363647 -4.1787616 132.51602295 -3.34921265 132.50817871 C-1.64625141 132.49737686 0.05677607 132.49452497 1.75976562 132.49902344 C4.35920509 132.4999941 6.95567569 132.45841424 9.5546875 132.4140625 C11.21093136 132.408854 12.86718545 132.40616733 14.5234375 132.40625 C15.29754974 132.38985474 16.07166199 132.37345947 16.86923218 132.35656738 C20.9101906 132.40802824 22.79575066 132.84213057 26.02978516 135.34179688 C28 138 28 138 28 141.125 C26.72397941 144.79355919 25.43121556 146.28439222 22 148 C19.42071047 148.12308974 16.86945066 148.18835973 14.2890625 148.203125 C13.52451752 148.20882507 12.75997253 148.21452515 11.97225952 148.22039795 C10.35326523 148.2298497 8.73425168 148.23638263 7.11523438 148.24023438 C4.64158442 148.24993496 2.16876719 148.28095335 -0.3046875 148.3125 C-1.87759923 148.31903068 -3.45051691 148.3242809 -5.0234375 148.328125 C-6.13143204 148.3466452 -6.13143204 148.3466452 -7.2618103 148.36553955 C-11.46101119 148.34737992 -13.95746303 147.99801204 -17 145 C-17.22900238 154.37521849 -16.61115498 163.61197384 -15.828125 172.94433594 C-15.62596698 175.36342878 -15.43354752 177.78315673 -15.2421875 180.203125 C-14.48390398 198.12158131 -14.48390398 198.12158131 -8.875 214.75 C-6 219.89473684 -6 219.89473684 -6 222 C-14.06702941 221.65672215 -19.97564996 217.46648044 -25.375 211.625 C-29.09248304 206.94982742 -30.78402521 202.15974786 -31.375 196.25 C-31.71568115 192.84031407 -31.71568115 192.84031407 -34.375 190.625 C-36.95998848 188.8853003 -36.95998848 188.8853003 -40 188 C-40.33 183.38 -40.66 178.76 -41 174 C-38.03 173.01 -38.03 173.01 -35 172 C-35.00444122 170.8602774 -35.00888245 169.72055481 -35.01345825 168.54629517 C-35.05456426 157.63752003 -35.0842465 146.72876121 -35.10362434 135.81992531 C-35.11392249 130.21585408 -35.1278149 124.61184688 -35.15087891 119.0078125 C-35.54223039 21.27176188 -35.54223039 21.27176188 -24 9 C-16.95739954 2.24901861 -9.66087452 -0.51754685 0 0 Z " fill="#BDE0F5" transform="translate(133,82)"/>
<path d="M0 0 C0 0.33 0 0.66 0 1 C-1.6396875 1.2165625 -1.6396875 1.2165625 -3.3125 1.4375 C-13.30174245 3.99658155 -20.35358955 13.16058485 -26.61328125 20.8125 C-29.38992011 27.19485862 -25.97418549 33.21924511 -23.6171875 39.390625 C-22.24451218 42.85215406 -20.85258537 46.30544997 -19.45703125 49.7578125 C-19.01488281 50.87414062 -18.57273437 51.99046875 -18.1171875 53.140625 C-17.50786377 54.64931152 -17.50786377 54.64931152 -16.88623047 56.18847656 C-15.99888535 59.00353619 -15.736005 61.07251812 -16 64 C-17.125 65.8125 -17.125 65.8125 -19 67 C-22.12403614 67.39050452 -24.09484904 67.61420958 -26.75 65.8125 C-28.24270809 63.64807327 -29.13051518 61.47468755 -30 59 C-32.64 58.67 -35.28 58.34 -38 58 C-38 62.62 -38 67.24 -38 72 C43.18 72 124.36 72 208 72 C208 69.03 208 66.06 208 63 C208.33 63 208.66 63 209 63 C209 66.3 209 69.6 209 73 C111.98 73 14.96 73 -85 73 C-85 52.29548442 -83.15621559 33.95174444 -69.04296875 17.75390625 C-64.59471718 13.39070729 -59.55969337 10.4558746 -54.0625 7.625 C-53.41861328 7.29081055 -52.77472656 6.95662109 -52.11132812 6.61230469 C-42.56508704 1.9729653 -32.31923621 1.55060807 -21.875 0.875 C-20.65167969 0.78863281 -19.42835938 0.70226562 -18.16796875 0.61328125 C-12.09810342 0.19987421 -6.08369871 -0.10619923 0 0 Z " fill="#70C2EA" transform="translate(194,424)"/>
<path d="M0 0 C0.13585757 10.15912751 -0.07841072 20.28482209 -0.4375 30.4375 C-0.95950249 45.26806529 -1.27520697 60.10067045 -1.5625 74.9375 C-1.58464569 76.08000214 -1.60679138 77.22250427 -1.62960815 78.39962769 C-1.75565181 84.93303754 -1.87921779 91.46649079 -2 98 C-10.58724288 96.95697404 -14.7510052 93.57646547 -20.38671875 87.29296875 C-31.52321445 71.46458382 -29.51087192 45.31513844 -26.62109375 27.19921875 C-24.79686743 17.80273225 -22.46985392 10.22424362 -14.6328125 4.171875 C-9.46935777 0.81327527 -6.26770054 -0.3076172 0 0 Z " fill="#3F6E90" transform="translate(43,133)"/>
<path d="M0 0 C8.4084718 0.59018813 13.24627908 2.69383041 19.53515625 8.390625 C24.50596591 14.16710105 25.49187551 22.73290994 27 30 C27.29390625 31.39992187 27.29390625 31.39992187 27.59375 32.828125 C29.69526956 49.23614313 30.49739454 74.08181272 20 88 C15.89997768 92.69827461 12.51001673 95.81603889 6.33300781 97.09960938 C5.52180481 97.27085327 4.71060181 97.44209717 3.87481689 97.61853027 C3.25612732 97.74441528 2.63743774 97.87030029 2 98 C1.98969254 97.28828644 1.97938507 96.57657288 1.96876526 95.84329224 C1.86972192 89.04998126 1.76708237 82.25673251 1.66066074 75.4635334 C1.60610259 71.97327264 1.55281072 68.48300325 1.50268555 64.99267578 C1.23855155 45.29412039 1.23855155 45.29412039 0.33377075 25.61749268 C-0.01971917 20.02902587 -0.12090368 14.47276843 -0.0625 8.875 C-0.05798828 8.00230469 -0.05347656 7.12960938 -0.04882812 6.23046875 C-0.03741683 4.15361341 -0.0195106 2.07679505 0 0 Z " fill="#3F6E91" transform="translate(469,133)"/>
<path d="M0 0 C4.38223678 1.29844053 4.38223678 1.29844053 6.375 4 C6.89453125 6.78515625 6.89453125 6.78515625 7.1875 10.0625 C8.24814623 17.74363154 10.56635092 23.77471795 16.59375 28.87890625 C24.94892657 34.65790338 32.22055316 36.195897 42.375 35 C50.43118799 32.46085384 56.35395373 28.48990661 60.375 21 C62.48602705 16.76956881 63.45800953 12.9585582 63.8125 8.25 C64.0883139 5.17891826 64.31223014 4.0953172 66.0625 1.4375 C69.16675617 -0.49217275 70.77900348 -0.66048916 74.375 0 C77.26585575 1.94818539 79.00558108 3.42595417 79.82421875 6.9140625 C80.41431012 18.10545064 74.75328326 30.01224925 67.41015625 38.1875 C56.74917393 48.3665211 45.16794861 51.62261185 30.8125 51.33984375 C19.51160401 50.75489617 10.03107165 45.04535593 2.4453125 36.9375 C-4.68200265 28.37248608 -9.13387686 18.39537353 -8.96484375 7.1640625 C-8.625 5 -8.625 5 -6.5625 1.875 C-3.625 0 -3.625 0 0 0 Z " fill="#040404" transform="translate(220.625,174)"/>
<path d="M0 0 C18.48 0 36.96 0 56 0 C56 22.09876543 56 22.09876543 48.1015625 31.18359375 C41.92367266 37.05625188 36.06428391 39.11414763 27.625 39.5 C19.16001272 39.26486146 13.01608279 36.44081829 7.125 30.375 C-0.38916961 20.83573503 0 12.41121316 0 0 Z " fill="#3F6F91" transform="translate(228,400)"/>
<path d="M0 0 C5.84855268 3.53428667 10.49513974 8.98586484 12.5625 15.5 C13.43184802 22.82880599 13.19086933 29.52168961 8.5625 35.5 C4.24077809 39.9722737 -0.04582045 44.15861526 -6.42578125 44.80078125 C-15.77993956 44.83375713 -21.81494999 43.74254584 -28.859375 37.28515625 C-33.77781237 31.72147833 -35.13799909 25.42993265 -34.8125 18.13671875 C-33.76902526 10.79978701 -29.98123202 6.60118119 -24.4375 1.9453125 C-17.6193799 -2.98184461 -7.72928004 -3.43186108 0 0 Z " fill="#8ED6F7" transform="translate(179.4375,113.5)"/>
<path d="M0 0 C5.86922976 3.54678185 10.45292643 8.98310136 12.5625 15.5 C13.73022901 23.5020167 12.17516393 29.88233391 7.5625 36.5 C2.98810714 41.63821337 -1.67926205 44.05703151 -8.5859375 44.87109375 C-15.9334892 45.02231455 -20.89958872 44.53331799 -26.4375 39.5 C-31.85365359 34.1807798 -34.7106168 29.46118839 -34.8125 21.6875 C-34.66229018 14.87798795 -33.2859866 10.44771667 -28.53125 5.52734375 C-20.49069118 -1.77816398 -10.57092107 -4.69357203 0 0 Z " fill="#8ED5F6" transform="translate(354.4375,113.5)"/>
<path d="M0 0 C4.26917632 0.68306821 5.35837471 2.19440791 8.125 5.5 C9.6424711 8.42957301 10.77061461 11.46379619 11.89453125 14.5625 C12.22039719 15.43140869 12.54626312 16.30031738 12.88200378 17.19555664 C13.56485638 19.02539825 14.24103542 20.85774263 14.91088867 22.69238281 C15.93630292 25.49672619 16.98491559 28.29154655 18.03710938 31.0859375 C18.69930518 32.86927669 19.36015879 34.65311497 20.01953125 36.4375 C20.33195267 37.27095947 20.64437408 38.10441895 20.96626282 38.96313477 C23.65623849 46.38743903 23.65623849 46.38743903 23.125 50.5 C22 52.3125 22 52.3125 20.125 53.5 C17.06315985 53.88273002 15.05525592 54.06479824 12.375 52.4375 C11.125 50.5 11.125 50.5 9.125 43.5 C0.71 43.995 0.71 43.995 -7.875 44.5 C-8.514375 45.799375 -9.15375 47.09875 -9.8125 48.4375 C-11.75 52.375 -11.75 52.375 -12.875 53.5 C-18.11550633 53.9556962 -18.11550633 53.9556962 -20.75 52.375 C-22.42941886 49.57596856 -22.14065577 47.76662458 -21.875 44.5 C-20.94454777 41.26982249 -19.72189631 38.17265906 -18.48046875 35.05078125 C-18.13244705 34.15634811 -17.78442535 33.26191498 -17.42585754 32.34037781 C-16.69010686 30.45668045 -15.94933163 28.57493884 -15.20385742 26.69506836 C-14.06422768 23.81686336 -12.94414205 20.93159898 -11.82617188 18.04492188 C-11.10792301 16.21308949 -10.38855977 14.38169357 -9.66796875 12.55078125 C-9.33347214 11.68826248 -8.99897552 10.82574371 -8.65434265 9.93708801 C-8.33423721 9.13582993 -8.01413177 8.33457184 -7.68432617 7.5090332 C-7.2679615 6.45363091 -7.2679615 6.45363091 -6.84318542 5.37690735 C-5.11152287 2.01993657 -3.75426739 0.65291607 0 0 Z " fill="#020404" transform="translate(154.875,437.5)"/>
<path d="M0 0 C18.48 0 36.96 0 56 0 C56 5.61 56 11.22 56 17 C55.67 17 55.34 17 55 17 C55 14.69 55 12.38 55 10 C41.14 10 27.28 10 13 10 C14.15090143 20.45369711 14.15090143 20.45369711 17.875 29 C18.4009375 29.88300781 18.926875 30.76601563 19.46875 31.67578125 C21.16825388 34.25538535 22.93635382 36.69824079 25 39 C17.06821783 38.66247735 11.81307348 34.68804799 6.1875 29.3125 C-0.24019822 19.57912841 0 12.2273657 0 0 Z " fill="#355C7B" transform="translate(228,400)"/>
<path d="M0 0 C1.07765625 0.01804687 2.1553125 0.03609375 3.265625 0.0546875 C4.49539062 0.08949219 4.49539062 0.08949219 5.75 0.125 C5.25628906 0.94484375 4.76257813 1.7646875 4.25390625 2.609375 C3.29291016 4.22585937 3.29291016 4.22585937 2.3125 5.875 C1.67441406 6.94234375 1.03632813 8.0096875 0.37890625 9.109375 C-3.3514094 16.01537903 -3.45786896 24.48127581 -1.49609375 32.0234375 C0.77111618 37.94485637 3.38082144 42.54554763 8.75 46.125 C-1.71127256 46.5497434 -8.72109298 46.1983731 -16.671875 38.91015625 C-21.59031237 33.34647833 -22.95049909 27.05493265 -22.625 19.76171875 C-21.58152526 12.42478701 -17.79373202 8.22618119 -12.25 3.5703125 C-8.01753055 0.511692 -5.27279703 -0.11462602 0 0 Z " fill="#73CBF5" transform="translate(167.25,111.875)"/>
<path d="M0 0 C1.07765625 0.01804687 2.1553125 0.03609375 3.265625 0.0546875 C4.49539063 0.08949219 4.49539063 0.08949219 5.75 0.125 C5.25628906 0.95644531 4.76257813 1.78789063 4.25390625 2.64453125 C3.29291016 4.27455078 3.29291016 4.27455078 2.3125 5.9375 C1.67441406 7.01644531 1.03632813 8.09539062 0.37890625 9.20703125 C-3.31210119 15.81897983 -3.13305311 23.71981184 -2.25 31.125 C-0.39436686 37.01849084 2.86670522 41.38704846 6.75 46.125 C-6.68863035 47.04685726 -6.68863035 47.04685726 -12.53515625 42.68359375 C-17.71889959 37.97217326 -21.73231312 33.4892208 -22.5859375 26.29296875 C-22.689323 18.40465513 -21.93508125 12.93845498 -16.34375 7.15234375 C-10.95926743 2.26009932 -7.43891328 -0.16171551 0 0 Z " fill="#74CCF6" transform="translate(342.25,111.875)"/>
<path d="M0 0 C1.17018677 -0.00361794 1.17018677 -0.00361794 2.36401367 -0.00730896 C4.00802714 -0.00633253 5.65207432 0.00701253 7.29589844 0.03198242 C9.80517824 0.0663061 12.31093578 0.05263088 14.8203125 0.03320312 C16.42188991 0.04010199 18.02345828 0.04977475 19.625 0.0625 C20.37096436 0.05754013 21.11692871 0.05258026 21.88549805 0.04747009 C25.52898997 0.12940281 27.66695082 0.53823686 30.78515625 2.48071289 C32.8125 4.62890625 32.8125 4.62890625 33.4375 7.56640625 C32.59044945 11.71695394 31.1223899 13.0165787 27.8125 15.62890625 C24.87058391 16.11636558 22.52175607 16.30970388 19.58984375 16.2578125 C18.41609947 16.26143044 18.41609947 16.26143044 17.21864319 16.26512146 C15.57043368 16.26414514 13.92219052 16.25080253 12.27416992 16.22583008 C9.75391237 16.19145961 7.23715213 16.20519367 4.71679688 16.22460938 C3.11196428 16.21771197 1.5071407 16.20804053 -0.09765625 16.1953125 C-0.84878189 16.20027237 -1.59990753 16.20523224 -2.37379456 16.21034241 C-5.84812626 16.13222204 -7.82362903 15.905151 -10.62670898 13.77709961 C-12.70038987 10.92299072 -13.25971163 9.16727619 -13.1875 5.62890625 C-9.38920955 0.57243209 -6.02884693 -0.10715219 0 0 Z " fill="#040404" transform="translate(364.1875,214.37109375)"/>
<path d="M0 0 C1.20560326 -0.00929787 1.20560326 -0.00929787 2.43556213 -0.01878357 C4.13256623 -0.02587574 5.82963999 -0.02271815 7.52661133 -0.01000977 C10.11735743 0.00384449 12.70448149 -0.03020312 15.29492188 -0.06835938 C16.94661546 -0.06931076 18.59831356 -0.06745071 20.25 -0.0625 C21.40646278 -0.08238731 21.40646278 -0.08238731 22.58628845 -0.10267639 C26.61433889 -0.0332806 28.49760535 0.41636331 31.71899414 2.91040039 C33.69140625 5.56640625 33.69140625 5.56640625 33.69140625 8.69140625 C32.41538566 12.35996544 31.12262181 13.85079847 27.69140625 15.56640625 C22.75088061 15.84995258 17.80946624 15.88011872 12.86157227 15.91650391 C11.21168909 15.93305303 9.5618773 15.96032981 7.91235352 15.99853516 C5.52973367 16.05341774 3.14879253 16.07519335 0.765625 16.08984375 C0.03212326 16.11251312 -0.70137848 16.1351825 -1.45710754 16.15853882 C-5.41041818 16.14230134 -7.13632394 15.70223355 -10.27807617 13.22509766 C-12.30859375 10.56640625 -12.30859375 10.56640625 -12.87109375 7.50390625 C-11.4913182 0.29841172 -6.41987974 -0.04119248 0 0 Z " fill="#040404" transform="translate(127.30859375,214.43359375)"/>
<path d="M0 0 C1.1368927 -0.00361794 1.1368927 -0.00361794 2.29675293 -0.00730896 C3.89368948 -0.00633271 5.49066079 0.00700816 7.08740234 0.03198242 C9.52428765 0.06630818 11.95754609 0.05263015 14.39453125 0.03320312 C15.95053618 0.04010201 17.50653181 0.0497748 19.0625 0.0625 C19.78659058 0.05754013 20.51068115 0.05258026 21.25671387 0.04747009 C26.10372585 0.15965623 28.66439374 1.13209697 32.03125 4.62890625 C33.09375 7.56640625 33.09375 7.56640625 33.03125 10.62890625 C31.5625 13.28100586 31.5625 13.28100586 29.03125 15.62890625 C25.98627697 16.12432766 23.50984398 16.30833749 20.46875 16.2578125 C19.22629517 16.26143044 19.22629517 16.26143044 17.95874023 16.26512146 C16.21040044 16.26414353 14.46202948 16.25076246 12.71386719 16.22583008 C10.03994412 16.19151781 7.36932608 16.20517185 4.6953125 16.22460938 C2.99477762 16.21771071 1.29425126 16.20803814 -0.40625 16.1953125 C-1.60326538 16.2027523 -1.60326538 16.2027523 -2.82446289 16.21034241 C-6.40930309 16.13440263 -8.54894533 15.93986508 -11.46875 13.77709961 C-12.96875 11.62890625 -12.96875 11.62890625 -13.53125 8.69140625 C-12.16452029 1.25032227 -6.73797679 -0.12337339 0 0 Z " fill="#070809" transform="translate(127.96875,188.37109375)"/>
<path d="M0 0 C0.7381041 0.00091644 1.47620819 0.00183289 2.23667908 0.0027771 C3.7907457 0.00879723 5.34480158 0.02449559 6.89868164 0.04931641 C9.27338526 0.08587656 11.64652832 0.0903351 14.02148438 0.08984375 C15.53516969 0.09967424 17.04884448 0.11133095 18.5625 0.125 C19.26987808 0.12722565 19.97725616 0.12945129 20.70606995 0.13174438 C24.33955716 0.20153916 27.20065944 0.32575994 30.21484375 2.4609375 C32.5423372 5.95217767 32.71783691 7.35316001 32.21484375 11.4609375 C30.7265625 13.61694336 30.7265625 13.61694336 28.21484375 15.4609375 C25.23503983 15.87073556 22.63163058 16.0458609 19.65234375 16.02734375 C18.82404053 16.03354233 17.9957373 16.03974091 17.14233398 16.04612732 C15.39405491 16.05321967 13.64570821 16.05006161 11.89746094 16.03735352 C9.22334551 16.0234816 6.55272643 16.05756896 3.87890625 16.09570312 C2.17838456 16.09665431 0.4778585 16.09479552 -1.22265625 16.08984375 C-2.0206665 16.10310196 -2.81867676 16.11636017 -3.64086914 16.13002014 C-7.56974368 16.06415253 -9.38942027 15.82800857 -12.31640625 13.11303711 C-13.78515625 10.4609375 -13.78515625 10.4609375 -13.84765625 7.3984375 C-11.43005358 0.71447717 -6.48510028 -0.13212884 0 0 Z " fill="#070808" transform="translate(364.78515625,188.5390625)"/>
<path d="M0 0 C2.14087452 1.59026741 2.90632336 2.47748802 3.38095093 5.12487793 C3.38333771 5.94411743 3.38572449 6.76335693 3.38818359 7.60742188 C3.40236832 9.00402039 3.40236832 9.00402039 3.4168396 10.42883301 C3.41076691 11.43200562 3.40469421 12.43517822 3.3984375 13.46875 C3.40274277 15.01653137 3.40274277 15.01653137 3.40713501 16.59558105 C3.40917701 18.77775623 3.40363771 20.95994965 3.39111328 23.14208984 C3.37506205 26.487069 3.39095791 29.83083979 3.41015625 33.17578125 C3.40817384 35.29427351 3.40433022 37.41276501 3.3984375 39.53125 C3.40754654 41.03600891 3.40754654 41.03600891 3.4168396 42.57116699 C3.40738312 43.50223267 3.39792664 44.43329834 3.38818359 45.39257812 C3.38579681 46.21181763 3.38341003 47.03105713 3.38095093 47.87512207 C2.90632336 50.52251198 2.14087452 51.40973259 0 53 C-5.13575757 53.6419697 -5.13575757 53.6419697 -7.66323853 51.76452637 C-9.37738903 49.50184613 -9.37996244 48.21441074 -9.38818359 45.39257812 C-9.39764008 44.46151245 -9.40709656 43.53044678 -9.4168396 42.57116699 C-9.41076691 41.56799438 -9.40469421 40.56482178 -9.3984375 39.53125 C-9.40130768 38.49939575 -9.40417786 37.4675415 -9.40713501 36.40441895 C-9.40917701 34.22224377 -9.40363771 32.04005035 -9.39111328 29.85791016 C-9.37506205 26.512931 -9.39095791 23.16916021 -9.41015625 19.82421875 C-9.40817384 17.70572649 -9.40433022 15.58723499 -9.3984375 13.46875 C-9.40451019 12.46557739 -9.41058289 11.46240479 -9.4168396 10.42883301 C-9.40738312 9.49776733 -9.39792664 8.56670166 -9.38818359 7.60742188 C-9.38579681 6.78818237 -9.38341003 5.96894287 -9.38095093 5.12487793 C-8.43133417 -0.17191894 -4.78426068 -0.59803258 0 0 Z " fill="#020404" transform="translate(196,438)"/>
<path d="M0 0 C7.92 0.66 15.84 1.32 24 2 C24 10.25 24 18.5 24 27 C15.10039873 25.72862839 11.14093206 22.75119384 5.54296875 16.078125 C1.72888534 10.94118228 0.9226765 6.45873548 0 0 Z " fill="#355C7B" transform="translate(17,204)"/>
<path d="M0 0 C-1.51115687 9.74357864 -5.39702185 15.87112912 -12.546875 22.5546875 C-15 24 -15 24 -24 26 C-24 17.75 -24 9.5 -24 1 C-16.25 0.5625 -16.25 0.5625 -13.82910156 0.43188477 C-9.82553141 0.20349029 -9.82553141 0.20349029 -5.89746094 -0.54711914 C-3.62028221 -1.09063002 -2.20277717 -0.70803552 0 0 Z " fill="#355D7B" transform="translate(495,205)"/>
<path d="M0 0 C3.27609994 3.02460136 5.5840195 5.75205851 7 10 C-6.6878342 10.18359241 -20.32799033 9.61491335 -34 9 C-31.55779047 2.48588088 -27.27806466 -1.42926068 -21 -4.4375 C-12.60030833 -6.01244219 -7.1204041 -4.76674798 0 0 Z " fill="#D55F69" transform="translate(353,20)"/>
<path d="M0 0 C3.23941108 2.13923373 5.12653115 4.27768735 7.27734375 7.50390625 C7.27734375 8.16390625 7.27734375 8.82390625 7.27734375 9.50390625 C-5.74007686 10.72009463 -18.63960718 11.8813019 -31.72265625 11.50390625 C-30.79150377 6.67884342 -28.32474327 3.75181316 -24.72265625 0.50390625 C-16.08166927 -4.96446743 -8.80628095 -4.76271897 0 0 Z " fill="#D9616C" transform="translate(184.72265625,18.49609375)"/>
<path d="M0 0 C4.38004608 2.36212038 7.01931013 4.77832153 9.8125 8.875 C9.8125 9.205 9.8125 9.535 9.8125 9.875 C-2.7275 9.875 -15.2675 9.875 -28.1875 9.875 C-21.84302573 -0.69912379 -11.48801095 -5.28380325 0 0 Z " fill="#DB616C" transform="translate(265.1875,17.125)"/>
<path d="M0 0 C0 0.33 0 0.66 0 1 C-1.5778125 1.0309375 -1.5778125 1.0309375 -3.1875 1.0625 C-7.72265786 2.17770275 -8.62089035 3.34891223 -11 7.14453125 C-12.20035377 9.37175015 -13.19969264 11.59907792 -14 14 C-12.35 14 -10.7 14 -9 14 C-9 14.33 -9 14.66 -9 15 C-13.95 15 -18.9 15 -24 15 C-22.5981466 9.3925864 -19.79826273 5.7708563 -14.8828125 2.66015625 C-9.74889705 0.16425618 -5.6681887 -0.41223191 0 0 Z " fill="#C3434C" transform="translate(177,15)"/>
<path d="M0 0 C0 0.33 0 0.66 0 1 C-1.5778125 1.0309375 -1.5778125 1.0309375 -3.1875 1.0625 C-7.72265786 2.17770275 -8.62089035 3.34891223 -11 7.14453125 C-12.20035377 9.37175015 -13.19969264 11.59907792 -14 14 C-17.3 14 -20.6 14 -24 14 C-22.63763567 8.38024715 -18.48562268 5.27146917 -14 2 C-9.27093351 -0.26601103 -5.14382996 -0.17737345 0 0 Z " fill="#C2434C" transform="translate(343,15)"/>
<path d="M0 0 C0 0.33 0 0.66 0 1 C-1.5778125 1.0309375 -1.5778125 1.0309375 -3.1875 1.0625 C-7.74320581 2.18275553 -8.62632296 3.43169468 -11.0546875 7.2109375 C-12.1395791 9.14605903 -12.1395791 9.14605903 -13 12 C-16.3 12 -19.6 12 -23 12 C-18.10686205 2.72879126 -10.09194291 -0.53115489 0 0 Z " fill="#CC464F" transform="translate(260,15)"/>
<path d="M0 0 C2 1 2 1 2.6328125 2.84765625 C2.79523438 3.57855469 2.95765625 4.30945313 3.125 5.0625 C3.29257813 5.79597656 3.46015625 6.52945312 3.6328125 7.28515625 C3.75398437 7.85105469 3.87515625 8.41695313 4 9 C1.69 9 -0.62 9 -3 9 C-2.44271087 5.65626525 -1.64826111 2.96687001 0 0 Z " fill="#6BBCE3" transform="translate(155,460)"/>
</svg>
